# xmcd
#
# Track frame offsets:
#	150
#	12412
#	21469
#	33588
#	43919
#	59111
#	68730
#	78551
#	87131
#	98312
#	106118
#	118813
#	127251
#	137692
#	149397
#	161648
#	173045
#	183707
#	192888
#	202442
#
# Disc length: 2819 seconds
#
# Revision: 1
# Processed by: cddbd v1.5.2PL0 Copyright (c) Steve Scherf et al.
# Submitted via: audiograbber 1.83.01
#
DISCID=2d0b0114
DTITLE=The Shirelles - Will You Love Me Tomorrow ( CD 1 )
DYEAR=2012
DGENRE=Soul
TTITLE0=Will You Love Me Tomorrow
TTITLE1=Dedicated To The One I Love
TTITLE2=Baby It s You
TTITLE3=I Don't Want To Cry
TTITLE4=Blue Holiday
TTITLE5=Mama Said
TTITLE6=Boys
TTITLE7=I'll Do The Same Thing Too
TTITLE8=What A Sweet Thing That Was
TTITLE9=Look A Here Baby
TTITLE10=My Willow Tree
TTITLE11=Please Be My Boyfriend
TTITLE12=You Don't Want My Love
TTITLE13=A Teardrop And A Lollipop
TTITLE14=The Things I Want To Hear ( Pretty Words )
TTITLE15=Tonight At The Prom
TTITLE16=My Love Is A Charm
TTITLE17=Twenty-One
TTITLE18=Without A Word Of Complaint
TTITLE19=Slop Time
EXTD=
EXTT0=
EXTT1=
EXTT2=
EXTT3=
EXTT4=
EXTT5=
EXTT6=
EXTT7=
EXTT8=
EXTT9=
EXTT10=
EXTT11=
EXTT12=
EXTT13=
EXTT14=
EXTT15=
EXTT16=
EXTT17=
EXTT18=
EXTT19=
PLAYORDER=
